<svg width="35" height="35" viewBox="0 0 35 35" fill="none" xmlns="http://www.w3.org/2000/svg">
<path d="M0 3C0 1.34315 1.34315 0 3 0H32C33.6569 0 35 1.34315 35 3V6H0V3Z" fill="#DCE1EB"/>
<path d="M35 32C35 33.6569 33.6569 35 32 35H3C1.34315 35 0 33.6569 0 32V6H35V32ZM11.707 14.293C11.3165 13.9024 10.6835 13.9024 10.293 14.293L4.58594 20L10.293 25.707C10.6835 26.0975 11.3165 26.0975 11.707 25.707C12.0975 25.3165 12.0975 24.6835 11.707 24.293L7.41406 20L11.707 15.707C12.0975 15.3165 12.0975 14.6835 11.707 14.293ZM20.4473 14.1055C19.9534 13.8585 19.3526 14.059 19.1055 14.5527L14.1055 24.5527C13.8585 25.0467 14.0588 25.6475 14.5527 25.8945C15.0467 26.1415 15.6475 25.9412 15.8945 25.4473L20.8945 15.4473C21.1413 14.9534 20.9411 14.3524 20.4473 14.1055ZM24.707 14.293C24.3165 13.9025 23.6835 13.9025 23.293 14.293C22.9025 14.6835 22.9025 15.3165 23.293 15.707L27.5859 20L23.293 24.293C22.9025 24.6835 22.9025 25.3165 23.293 25.707C23.6835 26.0976 24.3165 26.0976 24.707 25.707L30.4141 20L24.707 14.293Z" fill="#DCE1EB" fill-opacity="0.5"/>
</svg>
